<?xml version="1.0" standalone="no"?>
<!DOCTYPE svg PUBLIC "-//W3C//DTD SVG 1.1//EN" "http://www.w3.org/Graphics/SVG/1.1/DTD/svg11.dtd" >
<!--
2013-9-30: Created.
-->
<svg>
<metadata>
Created by iconfont
</metadata>
<defs>

<font id="iconfont" horiz-adv-x="1024" >
  <font-face
    font-family="iconfont"
    font-weight="500"
    font-stretch="normal"
    units-per-em="1024"
    ascent="896"
    descent="-128"
  />
    <missing-glyph />
    
    <glyph glyph-name="x" unicode="x" horiz-adv-x="1001"
d="M281 543q-27 -1 -53 -1h-83q-18 0 -36.5 -6t-32.5 -18.5t-23 -32t-9 -45.5v-76h912v41q0 16 -0.5 30t-0.5 18q0 13 -5 29t-17 29.5t-31.5 22.5t-49.5 9h-133v-97h-438v97zM955 310v-52q0 -23 0.5 -52t0.5 -58t-10.5 -47.5t-26 -30t-33 -16t-31.5 -4.5q-14 -1 -29.5 -0.5
t-29.5 0.5h-32l-45 128h-439l-44 -128h-29h-34q-20 0 -45 1q-25 0 -41 9.5t-25.5 23t-13.5 29.5t-4 30v167h911zM163 247q-12 0 -21 -8.5t-9 -21.5t9 -21.5t21 -8.5q13 0 22 8.5t9 21.5t-9 21.5t-22 8.5zM316 123q-8 -26 -14 -48q-5 -19 -10.5 -37t-7.5 -25t-3 -15t1 -14.5
t9.5 -10.5t21.5 -4h37h67h81h80h64h36q23 0 34 12t2 38q-5 13 -9.5 30.5t-9.5 34.5q-5 19 -11 39h-368zM336 498v228q0 11 2.5 23t10 21.5t20.5 15.5t34 6h188q31 0 51.5 -14.5t20.5 -52.5v-227h-327z" />
    

    
    <glyph glyph-name="tv" unicode="&#58924;" d="M709.44 536.032c-86.624 17.824-174.56 26.848-261.28 26.848s-174.624-9.024-261.28-26.848c-11.2-2.304-20.352-10.432-23.968-21.344-46.144-140.192-46.144-282.336 0-422.528 3.584-10.88 12.736-19.008 23.968-21.312 86.656-17.792 174.56-26.848 261.28-26.848 86.688 0 174.656 9.056 261.28 26.88 11.264 2.304 20.384 10.432 24 21.312 46.112 140.192 46.112 282.336 0 422.528-3.616 10.88-12.768 19.008-24 21.312zM703.008 102.176c-169.888-34.88-339.808-34.88-509.664 0-44.192 134.176-44.192 268.32 0 402.528 169.888 34.912 339.808 34.912 509.664 0 44.192-134.176 44.192-268.32 0-402.528zM987.328 609.76c-6.176 26.048-28 45.504-54.56 48.704-139.52 16.96-281.024 25.536-420.608 25.536s-281.056-8.576-420.576-25.504c-26.56-3.232-48.352-22.656-54.528-48.736-48.928-205.536-48.928-413.952 0-619.52 6.176-26.048 27.968-45.504 54.528-48.672 67.232-8.192 134.912-14.176 202.592-18.432-3.648-2.336-6.016-4.704-6.016-7.136 0-17.696 100.288-32 224-32s224 14.304 224 32c0 2.432-2.368 4.8-6.016 7.136 67.68 4.256 135.36 10.24 202.56 18.432 26.56 3.2 48.384 22.624 54.56 48.672 48.992 205.568 48.992 413.984 0.064 619.52zM925.056 5.056c-275.264-33.376-550.528-33.376-825.76 0-46.816 196.64-46.816 393.28 0 589.888 275.264 33.408 550.528 33.408 825.76 0 46.816-196.608 46.816-393.248 0-589.888zM848.192 428c26.496 0 48 21.504 48 48s-21.504 48-48 48-48-21.504-48-48 21.504-48 48-48zM848.192 492c8.8 0 16-7.2 16-16s-7.2-16-16-16-16 7.2-16 16 7.168 16 16 16zM880.192 108c8.8 0 16-7.136 16-16 0-8.8-7.2-16-16-16l-96 0c-8.864 0-16 7.2-16 16 0 8.864 7.136 16 16 16l96 0zM912.192 204c8.8 0 16-7.136 16-16 0-8.8-7.2-16-16-16l-96 0c-8.864 0-16 7.2-16 16 0 8.864 7.136 16 16 16l96 0zM912.192 300c8.8 0 16-7.168 16-16s-7.2-16-16-16l-96 0c-8.864 0-16 7.168-16 16s7.136 16 16 16l96 0zM432.16 434.272c8.832 0.352 16-6.528 16-15.36s-7.2-16.256-16-16.576l-119.968-8.224c-8.736-0.896-16.864-8.768-18.048-17.472l-5.344-60.64c-0.352-8.8-7.84-16-16.576-16s-15.584 7.2-15.136 16l9.76 89.152c1.472 8.704 9.824 16.64 18.56 17.632l146.752 11.488z"  horiz-adv-x="1025" />

    
    <glyph glyph-name="xingzhuang60kaobei2" unicode="&#58883;" d="M1077.529145 423.793752C1072.06379 440.466544 1056.511742 451.673981 1039.008769 451.673981L686.956883 451.673981 578.161726 784.175116C572.876243 800.792563 557.37954 812 539.765877 812 522.262904 812 506.710856 800.792563 501.370028 784.299643L392.450343 451.673981 40.467639 451.673981C22.909321 451.673981 7.398781 440.466544 2.002608 423.793752-3.462747 407.286996 2.528389 389.036861 16.682967 378.880986L301.504067 173.466652 192.764255-159.214355C187.243555-175.776457 193.234691-193.860556 207.444614-204.127121 221.474665-214.338342 240.845544-214.338342 254.944776-204.127121L539.765877 1.411739 824.642322-204.127121C831.629675-209.191223 839.972989-211.820128 848.371649-211.820128 856.701127-211.820128 865.099787-209.191223 872.142485-204.127121 886.297062-193.860556 892.288199-175.776457 886.767498-159.214355L778.138377 173.466652 1062.793441 378.880986C1076.934183 389.036861 1082.869974 407.286996 1077.529145 423.793752Z"  horiz-adv-x="1080" />

    
    <glyph glyph-name="youjiantou" unicode="&#58911;" d="M369.418654 35.429163c-12.671601 0-25.343201 4.836145-35.016515 14.509459-19.346627 19.346627-19.346627 50.687426 0 70.03303l259.432681 259.360026L325.115636 648.027325c-19.346627 19.346627-19.346627 50.687426 0 70.03303s50.687426 19.346627 70.03303 0l303.735699-303.71114c9.286504-9.286504 14.509459-21.88545 14.509459-35.016515 0-13.131065-5.223978-25.730011-14.509459-35.016515L404.435169 49.939645C394.761855 40.266331 382.090255 35.429163 369.418654 35.429163z"  horiz-adv-x="1024" />

    
    <glyph glyph-name="zuojiantou" unicode="&#58945;" d="M654.581346 35.429163c12.671601 0 25.343201 4.836145 35.016515 14.509459 19.346627 19.346627 19.346627 50.687426 0 70.03303L430.16518 379.3327l268.719184 268.694625c19.346627 19.346627 19.346627 50.687426 0 70.03303-19.346627 19.346627-50.687426 19.346627-70.03303 0L325.115636 414.349215c-9.286504-9.286504-14.509459-21.88545-14.509459-35.016515 0-13.131065 5.222955-25.730011 14.509459-35.016515L619.564831 49.939645C629.238145 40.266331 641.909745 35.429163 654.581346 35.429163z"  horiz-adv-x="1024" />

    
    <glyph glyph-name="z103" unicode="&#58992;" d="M834.532 598.98c0 162.006-140.768 293.337-314.417 293.337s-314.417-131.331-314.417-293.337c0-30.284 4.923-59.493 14.057-86.974h-0.002l0.007-0.019c7.11-21.388 16.783-41.718 28.667-60.702l270.986-573.855 271.859 573.007c12.125 19.225 21.987 39.844 29.203 61.552l0.007 0.020h-0.002c9.131 27.481 14.050 56.69 14.050 86.973zM520.117 469.595c-71.457 0-129.385 57.927-129.385 129.385s57.927 129.385 129.385 129.385c71.457 0 129.385-57.927 129.385-129.385s-57.926-129.385-129.385-129.385zM519.41-122.571z"  horiz-adv-x="1024" />

    
    <glyph glyph-name="shoucang" unicode="&#58905;" d="M728.576 854.4c-90.304 0-161.408-44.992-216.64-119.168C456.64 809.472 385.664 854.4 295.296 854.4 132.48 854.4 0 710.592 0 533.824c0-105.472 47.488-179.456 85.568-238.848 110.848-172.672 376.576-359.168 388.288-368.256 11.392-8.704 24.768-13.056 37.952-13.056 13.312 0 26.56 4.352 37.952 13.056 11.84 9.088 277.504 195.584 388.352 368.256 38.08 59.392 85.632 133.376 85.632 238.848C1023.808 710.592 891.264 854.4 728.576 854.4L728.576 854.4 728.576 854.4zM891.264 335.104c-107.776-167.936-380.032-357.76-380.032-357.76s-272.256 189.824-380.096 357.76C91.328 397.056 55.808 456 55.808 537.408c0 140.544 104.96 254.528 234.432 254.528 95.744 0 164.288-62.336 200.832-151.552L491.072 640.768l0.064 0c2.688-9.28 10.688-16.064 20.032-16.064 9.408 0 17.344 6.784 20.032 16.064l0.256 0c36.544 89.024 105.088 151.168 200.576 151.168 129.536 0 234.496-113.984 234.496-254.528C966.656 456 931.072 397.056 891.264 335.104L891.264 335.104 891.264 335.104z"  horiz-adv-x="1024" />

    
    <glyph glyph-name="iconfontyouxihudong" unicode="&#58934;" d="M1018.88 276.48C985.6 565.76 926.72 773.12 739.84 773.12c-94.72 0-143.36-97.28-227.84-104.96-87.04 7.68-133.12 104.96-227.84 104.96-186.88 0-245.76-207.36-276.48-494.08-17.92-153.6-2.56-281.6 92.16-281.6 133.12 0 138.24 120.32 232.96 176.64 35.84 17.92 115.2 25.6 181.76 28.16 66.56-2.56 145.92-10.24 181.76-28.16 94.72-56.32 99.84-176.64 232.96-176.64C1021.44-5.12 1034.24 122.88 1018.88 276.48L1018.88 276.48zM286.72 302.08C212.48 302.08 153.6 363.52 153.6 435.2s58.88 133.12 133.12 133.12 133.12-58.88 133.12-133.12S358.4 302.08 286.72 302.08L286.72 302.08zM883.2 409.6l-104.96 0 0-104.96-51.2 0L727.04 409.6l-104.96 0 0 51.2 104.96 0L727.04 563.2l51.2 0L778.24 460.8l104.96 0L883.2 409.6 883.2 409.6 883.2 409.6zM883.2 409.6M209.92 435.2c0-20.48 7.68-38.4 23.04-53.76 12.8-12.8 33.28-23.04 53.76-23.04 20.48 0 38.4 7.68 53.76 23.04 12.8 12.8 23.04 33.28 23.04 53.76 0 20.48-7.68 38.4-23.04 53.76-12.8 12.8-33.28 23.04-53.76 23.04-20.48 0-38.4-7.68-53.76-23.04C217.6 476.16 209.92 455.68 209.92 435.2L209.92 435.2zM209.92 435.2"  horiz-adv-x="1025" />

    
    <glyph glyph-name="genduo" unicode="&#58893;" d="M1020.82 463.503h-426.137v432.497h-165.366v-432.497h-426.137v-159.006h426.137v-432.497h165.366v432.497h426.137z"  horiz-adv-x="1024" />

    
    <glyph glyph-name="bingqilin" unicode="&#59009;" d="M861.245668 558.857806l5.62655-5.626549c29.507415-29.507415 29.507415-77.365053 0-106.872467-14.737723-14.769692-34.078986-22.122569-53.42025-22.122569s-38.682526 7.352877-53.420249 22.122569l-190.47148 190.471481c-29.507415 29.507415-29.507415 77.333084 0 106.840498s77.365053 29.507415 106.872467 0l5.626549-5.626549 179.186413-179.186414zM860.446443 737.244994c49.200337-49.200337 49.488058-128.835191 0.799225-178.387188l-179.186413 179.186414c49.551997 48.688833 129.18685 48.401111 178.387188-0.799226zM779.372982 419.632681c31.329649-31.29768 31.329649-82.0645 0-113.362181-15.664825-15.664825-36.156973-23.465268-56.68109-23.465268s-41.016265 7.800443-56.68109 23.465268l-236.538853 236.538853c-31.29768 31.29768-31.29768 82.0645 0 113.362181 31.29768 31.329649 82.0645 31.329649 113.36218 0l236.538853-236.538853zM577.328713 389.038319l73.432862-73.432862-534.26643-322.31176 322.311761 534.266429zM116.501539-29.084624a22.378321 22.378321 0 0 0-19.16863 33.938322l322.31176 534.266429a22.384715 22.384715 0 0 0 16.45446 10.655278 22.432668 22.432668 0 0 0 18.52925-6.390609l211.954669-211.954669a22.378321 22.378321 0 0 0-4.264669-34.983709l-534.266429-322.311761a22.295202 22.295202 0 0 0-11.550411-3.219281z m326.697912 520.606063l-260.825726-432.349162 432.345965 260.828922-171.520239 171.52024zM722.691892 260.423715c-27.394262 0-53.142119 10.661672-72.50576 30.022116l-236.538853 236.538853c-39.980469 39.977272-39.980469 105.031051 0 145.008323 19.357248 19.376429 45.108301 30.050888 72.50576 30.050888 27.394262 0 53.145315-10.674459 72.512154-30.057282l236.532459-236.532459c19.376429-19.357248 30.047691-45.108301 30.047692-72.50576 0-27.394262-10.674459-53.148512-30.057282-72.508957-19.350854-19.354051-45.101908-30.015722-72.49617-30.015722zM486.153039 657.29045a57.35244 57.35244 0 0 1-40.850026-16.933995c-22.534969-22.534969-22.534969-59.193856-0.006394-81.722432l236.54205-236.535656a57.384409 57.384409 0 0 1 40.853223-16.914814c15.441041 0 29.951784 6.006981 40.856421 16.914814 10.930211 10.917424 16.943586 25.421773 16.943585 40.853224s-6.013375 29.938997-16.933995 40.850026L527.00946 640.346864a57.355637 57.355637 0 0 1-40.856421 16.943586zM813.451968 401.8579c-26.201817 0-50.801986 10.191727-69.260903 28.698598L553.735569 621.005601c-18.497281 18.497281-28.685811 43.091056-28.685811 69.244919 0 26.15706 10.18853 50.747638 28.689008 69.244919 18.494084 18.497281 43.091056 28.685811 69.257706 28.68581s50.763623-10.18853 69.260904-28.68581l190.439511-190.442709c38.187006-38.187006 38.187006-100.328407 0-138.51861-18.449327-18.48769-43.043102-28.67622-69.244919-28.67622zM622.996472 743.421411c-14.210234 0-27.566895-5.530642-37.611564-15.575312a52.812838 52.812838 0 0 1-15.578508-37.598776c0-14.197446 5.530642-27.55091 15.575311-37.595579l190.474678-190.471481c10.022291-10.047866 23.369361-15.568918 37.595579-15.568918s27.570091 5.524248 37.579595 15.552933c20.754294 20.757491 20.754294 54.500802 0.015985 75.242309l-190.439512 190.442709a52.848003 52.848003 0 0 1-37.611564 15.572115zM860.462427 535.699441a22.279217 22.279217 0 0 0-15.767126 6.499304c-8.759514 8.714758-8.833043 22.848266-0.115088 31.610977l0.147057 0.147057c0.182223 0.198208 0.367644 0.393219 0.556262 0.585034 39.958091 40.667803 39.660779 106.559171-0.661759 146.878511-40.316144 40.319341-106.207511 40.623046-146.878512 0.661759a18.382192 18.382192 0 0 0-0.575442-0.543474c-8.746727-8.673198-22.95696-8.733939-31.671718-0.022378-8.737136 8.737136-8.833043 22.816297-0.092711 31.553433 0.437976 0.434779 0.843982 0.831195 1.262777 1.221217 58.138878 56.821754 152.08307 56.303856 209.604945-1.221217 57.521876-57.521876 58.039774-151.45328 1.234005-209.595355-0.36125-0.390022-0.732091-0.767257-1.128507-1.166869a22.384715 22.384715 0 0 0-15.914183-6.607999zM438.95716 283.153695a22.378321 22.378321 0 0 0-11.582379 41.540557l138.393931 83.506304a22.391109 22.391109 0 0 0 33.954306-19.162237 22.375124 22.375124 0 0 0-11.588773-19.616197l-137.639462-83.045949a22.256839 22.256839 0 0 0-11.537623-3.222478z"  horiz-adv-x="1024" />

    
    <glyph glyph-name="ren" unicode="&#58882;" d="M510.238 877.242c-157.525 0-285.671-128.151-285.671-285.677 0-114.080 67.367-212.466 164.27-258.22-179.148-52.611-310.438-218.241-310.438-414.179 0-12.47 10.106-22.566 22.566-22.566 12.46 0 22.566 10.097 22.566 22.566 0 213.236 173.495 386.723 386.706 386.723 157.525 0 285.682 128.151 285.682 285.677s-128.157 285.677-285.682 285.677v0zM510.238 351.022c-132.642 0-240.538 107.913-240.538 240.543 0 132.638 107.895 240.543 240.538 240.543 132.647 0 240.549-107.906 240.549-240.543 0-132.638-107.895-240.543-240.549-240.543v0zM510.238 351.022zM772.185 262.54c-9.921 7.559-24.066 5.686-31.623-4.231-7.579-9.916-5.686-24.062 4.228-31.644 96.703-73.893 152.149-185.978 152.149-307.492 0-12.475 10.111-22.572 22.567-22.572 12.47 0 22.566 10.097 22.566 22.572 0 135.707-61.924 260.859-169.888 343.369v0zM772.185 262.54z"  horiz-adv-x="1024" />

    
    <glyph glyph-name="balloons" unicode="&#58995;" d="M696.58 581.41c50.856 71.79 44.13 171.872-20.176 236.176-71.818 71.818-188.254 71.818-260.072 0l-39.576-39.576-39.576 39.576c-71.818 71.818-188.254 71.818-260.072 0s-71.818-188.254 0-260.072l299.65-299.65 173.826 173.826M949.398 560.582c-45.262 45.262-118.65 45.262-163.912 0l-24.942-24.942-24.942 24.942c-45.262 45.262-118.65 45.262-163.912 0s-45.262-118.65 0-163.912l188.856-188.856 188.856 188.856c45.26 45.264 45.26 118.65-0.004 163.912zM664.212 687.888h-31.216c0 43.704-35.032 80.002-80.816 80.002V799.106c62.432 0 112.032-50.866 112.032-111.218zM998.954 478.626c0 35.13-13.68 68.154-38.52 92.996-24.84 24.838-57.866 38.518-92.994 38.518-35.13 0-68.154-13.68-92.996-38.518l-13.906-13.908-13.908 13.908a131.266 131.266 0 0 1-25.41 19.82c42.562 76.988 29.83 173.566-33.786 237.184-77.79 77.786-204.356 77.786-282.146 0l-28.538-28.54-28.538 28.54c-77.792 77.788-204.36 77.784-282.148 0-77.786-77.79-77.786-204.358 0-282.146l294.648-294.646v-30.118h31.216v29.256l153.282 153.28a131.614 131.614 0 0 1 15.436-18.618l182.994-182.99v-41.282h31.216v38.696l185.576 185.574c24.844 24.84 38.522 57.866 38.522 92.994z m-622.2-198.686L88.142 568.554c-65.616 65.614-65.616 172.38 0 237.996 65.618 65.616 172.384 65.616 237.998 0l50.614-50.61 50.614 50.61c65.616 65.616 172.38 65.616 237.996 0 54.304-54.302 64.684-137.072 27.242-202.366-45.12 13.918-96.306 3.082-131.956-32.564-37.312-37.312-47.442-91.646-30.452-138.234l-153.444-153.446z m383.788-50.05l-177.818 177.816c-39.104 39.106-39.104 102.734-0.002 141.84 19.554 19.554 45.234 29.33 70.92 29.33 25.682 0 51.37-9.778 70.918-29.33l35.98-35.978 35.98 35.978c39.104 39.108 102.734 39.104 141.836 0h0.002c18.944-18.942 29.376-44.128 29.376-70.918 0-26.788-10.432-51.976-29.378-70.918l-177.814-177.82zM726.998 175.93h64.514v-31.216h-64.514zM776.152-128h-31.216v39.978c0 21.83 17.762 39.594 39.594 39.594 13.438 0 24.37 10.932 24.37 24.37s-10.932 24.37-24.37 24.37h-39.978c-26.24 0-47.59 21.348-47.59 47.59s21.348 47.592 47.59 47.592a0.384 0.384 0 0 1 0.386 0.382v31.982h31.216v-31.982c0-17.424-14.176-31.6-31.602-31.6-9.028 0-16.372-7.344-16.372-16.374 0-9.028 7.344-16.372 16.372-16.372h39.978c30.65 0 55.586-24.936 55.586-55.586s-24.936-55.586-55.586-55.586a8.384 8.384 0 0 1-8.376-8.376V-128zM472.316-128H441.1v59.132c0 20.51-16.686 37.198-37.196 37.198h-43.142c-35.06 0-63.582 28.522-63.582 63.582s28.522 63.582 63.582 63.582h31.982c9.03 0 16.374 7.344 16.374 16.374 0 9.028-7.344 16.372-16.374 16.372-17.424 0-31.6 14.176-31.6 31.602v31.98h31.216v-31.98c0-0.212 0.17-0.386 0.382-0.386 26.24 0 47.592-21.348 47.592-47.59 0-26.24-21.35-47.592-47.592-47.592H360.76c-17.846 0-32.366-14.52-32.366-32.366s14.52-32.366 32.366-32.366h43.142c37.722 0 68.412-30.69 68.412-68.414V-128zM936.062 479.774h-31.216c0 18.73-15.526 32.256-32.174 32.256v31.216c35.378 0 63.39-28.092 63.39-63.472zM42.302 384.042h31.216v-49.948H42.302zM215.042-32.182h31.216v-47.866h-31.216zM616.7-48.832h31.216v-47.866H616.7zM471.02 240.444h31.216v-49.948H471.02zM826.894 750.322h31.216v-47.866h-31.216zM200.474 257.094h31.216v-35.38h-31.216zM90.174 479.774h31.216v-33.298H90.174zM523.048 304.96h31.216v-33.298h-31.216zM666.646 175.93h31.216v-31.216h-31.216zM920.544 190.498h31.216v-29.136h-31.216zM856.028 128.064h31.216v-31.216h-31.216zM71.444 48.982H102.66v-33.298H71.444zM104.742 15.684h31.216v-31.216H104.742zM743.648 879.35h31.216v-31.216h-31.216zM953.842 654.59h31.216v-31.216h-31.216zM102.874 120.878l-27.92 13.962 19.09 38.18a34.146 34.146 0 0 1-2.124 34.13c-12.964 19.444-14.524 44.506-4.074 65.412l19.092 38.182 27.92-13.962-19.09-38.18a34.146 34.146 0 0 1 2.124-34.13c12.964-19.446 14.524-44.51 4.072-65.414l-19.09-38.18zM566.616 8.94l-27.92 13.962 19.09 38.18a34.154 34.154 0 0 1-2.124 34.134c-12.964 19.442-14.524 44.504-4.07 65.408l19.09 38.18 27.92-13.962-19.09-38.18a34.146 34.146 0 0 1 2.124-34.13c12.964-19.448 14.524-44.512 4.07-65.412l-19.09-38.18zM934.414-87.008l-27.92 13.962 19.09 38.18a34.15 34.15 0 0 1-2.124 34.132c-12.964 19.446-14.524 44.51-4.07 65.41l19.09 38.18 27.92-13.962-19.09-38.18a34.146 34.146 0 0 1 2.124-34.13c12.964-19.446 14.524-44.512 4.072-65.412l-19.092-38.18zM918.426 664.578l-27.92 13.962 19.09 38.18a34.146 34.146 0 0 1-2.124 34.13c-12.964 19.446-14.524 44.51-4.072 65.412l19.09 38.182 27.92-13.962-19.09-38.18a34.15 34.15 0 0 1 2.124-34.132c12.964-19.444 14.524-44.506 4.072-65.412l-19.09-38.18zM985.058 896h31.216v-31.216h-31.216zM344.072 238.364h64.514v-31.216h-64.514z"  horiz-adv-x="1024" />

    
    <glyph glyph-name="dongman" unicode="&#58625;" d="M988.672 696.64c-40.32 52.608-106.816 77.696-172.928 66.304-57.472-10.176-102.4-46.464-126.080-97.28-104.384 42.816-231.104 43.776-356.16 2.304-24.96 51.648-71.744 87.552-130.688 96-66.432 9.28-132.096-18.048-170.624-71.936-39.168-56.256-41.344-128.512-6.016-188.8 26.816-45.632 70.208-74.816 119.040-83.904-0.64-1.984-1.28-3.968-1.856-6.016-1.664-5.888-3.2-11.84-4.608-17.792s-2.688-12.032-3.84-18.112-2.112-12.288-2.944-18.496c-0.896-6.144-1.6-12.416-2.176-18.688s-1.024-12.608-1.344-19.008c-0.32-6.336-0.448-12.8-0.448-19.2 0-27.648 2.688-54.592 7.808-80.64 5.12-25.984 12.672-51.136 22.4-75.072 9.664-23.936 21.568-46.656 35.392-67.968 13.824-21.248 29.504-41.152 46.912-59.2 17.344-18.048 36.352-34.432 56.832-48.896 20.416-14.4 42.24-26.752 65.216-36.864s47.104-17.984 72.064-23.296 50.88-8.064 77.376-8.064 52.416 2.816 77.44 8.128c25.024 5.312 49.088 13.184 72.064 23.296s44.8 22.528 65.28 36.864c20.352 14.464 39.424 30.784 56.832 48.896 17.344 18.048 33.088 37.952 46.784 59.2 13.824 21.312 25.728 44.032 35.456 67.968s17.28 49.088 22.4 75.072c5.056 25.984 7.744 52.928 7.744 80.576 0 6.464-0.128 12.864-0.448 19.2-0.32 6.4-0.832 12.736-1.344 19.008s-1.344 12.544-2.176 18.688-1.856 12.352-3.008 18.432-2.368 12.096-3.84 18.112c-1.344 6.016-2.944 11.968-4.544 17.856-0.576 2.112-1.28 4.096-1.856 6.144 50.88 9.408 95.808 40.256 122.112 88.576 33.344 61.504 28.8 133.632-12.224 188.608zM944.64 538.688c-16.768-30.784-38.784-55.872-86.72-58.368-17.344-0.896-36.864-13.312-39.872-35.328-1.344-10.048 1.856-27.712 3.072-31.232 1.92-5.824 3.84-11.712 5.504-17.664s3.2-12.032 4.608-18.112 2.624-12.288 3.712-18.496 1.984-12.48 2.688-18.816 1.28-12.736 1.6-19.136 0.576-12.928 0.576-19.52c0-23.68-2.304-46.784-6.656-69.184s-10.816-43.968-19.136-64.512-18.432-40.128-30.272-58.368c-11.84-18.304-25.216-35.328-40.064-50.88-14.784-15.552-31.040-29.632-48.512-41.984s-36.096-23.040-55.68-31.744-40.192-15.488-61.44-20.032c-21.376-4.672-43.456-7.040-66.048-7.040s-44.672 2.368-65.984 6.976c-21.312 4.544-41.92 11.392-61.504 20.032s-38.208 19.392-55.68 31.744-33.664 26.496-48.512 42.048-28.224 32.576-40 50.88c-11.84 18.24-21.952 37.824-30.272 58.368-8.256 20.544-14.72 42.112-19.136 64.512-4.352 22.4-6.656 45.504-6.656 69.184 0 6.592 0.192 13.056 0.576 19.52s0.96 12.8 1.664 19.136 1.6 12.608 2.688 18.816 2.304 12.416 3.648 18.496 2.944 12.16 4.608 18.112 5.12 24.064 9.408 36.224c8.512 24.192-5.824 47.68-32.832 47.040-50.752-1.152-74.88 25.984-92.608 56.256-17.664 30.208-26.24 77.44 3.008 119.552 24.448 34.048 66.688 51.84 109.376 45.44 41.728-5.952 74.56-32.896 88.512-71.68 9.664-26.88 47.040-16.384 49.728-14.272 126.592 46.336 255.744 45.184 356.672-3.136 15.296-7.552 44.288-9.536 52.032 13.824 12.992 39.168 44.544 67.264 86.144 74.56 42.496 7.744 85.248-8.64 110.784-41.856 30.656-41.088 23.68-88.64 6.976-119.36z"  horiz-adv-x="1024" />

    
    <glyph glyph-name="yundong-on" unicode="&#58627;" d="M297.888 450.696c19.456 18.352 143.832 142.32 143.832 142.32h71.928l-107.864-198.648v-213.472c0 0-188.544 0.040-215.768 0-27.232-0.032-34.048-70.648 0-71.16 34.040-0.496 287.672 0 287.672 0l0.016 213.488 143.84-121.616c0 0-0.088-197.504 0-234.184 0.080-36.688 72.32-32.12 71.92 0-0.384 32.112 0 284.632 0 284.632l-143.848 127.44 35.968 86.048 35.968-35.584c0 0 180.2 4.896 215.76 0 35.568-4.912 45.984 70.496 0 71.16-45.984 0.664-179.8 0-179.8 0v177.896h-251.728c-1.32 1.216-142.784-160.872-158.232-185.016-12.072-22.24 28.48-63.912 50.336-43.304zM765.376 750.176c0 39.248-32.224 71.16-71.912 71.16-39.696 0-71.92-31.904-71.92-71.16 0-39.272 32.224-71.16 71.92-71.16 39.696 0 71.912 31.888 71.912 71.16z"  horiz-adv-x="1024" />

    
    <glyph glyph-name="Oval" unicode="&#58626;" d="M512-128c-281.6 0-512 230.4-512 512s230.4 512 512 512 512-230.4 512-512-230.4-512-512-512zM512 725.333c-187.733 0-341.333-153.6-341.333-341.333s153.6-341.333 341.333-341.333 341.333 153.6 341.333 341.333-153.6 341.333-341.333 341.333z"  horiz-adv-x="1024" />

    
    <glyph glyph-name="yinyueclick" unicode="&#58628;" d="M179.2-128C81.454545-128 0-48.872727000000054 0 51.200000000000045s79.127273 179.2 179.2 179.2c39.563636 0 76.8-13.963636 109.381818-37.236364l9.309091-6.981818V761.018182c0 34.909091 27.927273 62.836364 60.509091 62.836363l598.109091 69.818182h4.654545C993.745455 896 1024 868.072727 1024 833.163636v-672.581818c0-48.872727-18.618182-93.090909-53.527273-125.672727-32.581818-32.581818-79.127273-51.2-125.672727-51.2-97.745455 0-179.2 79.127273-179.2 179.2 0 97.745455 79.127273 179.2 179.2 179.2 39.563636 0 79.127273-13.963636 109.381818-37.236364l9.309091-6.981818V609.745455l-605.090909-65.163637v-493.381818c-2.327273-100.072727-81.454545-179.2-179.2-179.2z m0 295.563636c-65.163636 0-118.690909-53.527273-118.690909-118.690909s53.527273-118.690909 118.690909-118.690909 118.690909 53.527273 118.690909 118.690909c-2.327273 67.490909-53.527273 118.690909-118.690909 118.690909z m665.6 111.709091c-65.163636 0-118.690909-53.527273-118.690909-118.690909s53.527273-118.690909 118.690909-118.690909 118.690909 53.527273 118.690909 118.690909-53.527273 118.690909-118.690909 118.690909z m-488.727273 325.818182l605.090909 65.163636V835.490909l-598.109091-69.818182h-6.981818v-160.581818z"  horiz-adv-x="1024" />

    
    <glyph glyph-name="shipin" unicode="&#58925;" d="M827.99999999 770H215.99999999C149.99999999 770 101.99999999 722 101.99999999 668v-546c0-54 54-102 114-102h612c66 0 114 48 114 102V668c0 54-54 102-114 102z m0 0M641.99999999 380c-18-12-210-108-228-114-12-6-30 0-30 18V506c0 12 12 24 30 18l228-114c12-6 12-24 0-30z m0 0M245.99999999 104c0-12-6-18-18-18H191.99999999c-12 0-18 6-18 18v36c0 12 6 18 18 18h36c12 0 18-6 18-18v-36z m0 138c0-12-6-18-18-18H191.99999999c-12 0-18 6-18 18v36c-6 6 6 12 18 12h36c12 0 18-6 18-18v-30z m0 132c0-12-6-18-18-18H191.99999999c-12 0-18 6-18 18v36c0 12 6 18 18 18h36c12 0 18-6 18-18v-36z m0 138c0-12-6-18-18-18H191.99999999c-12 0-18 6-18 18v36c0 12 6 18 18 18h36c12 0 18-6 18-18v-36z m0 138c0-12-6-18-18-18H191.99999999c-12 0-18 6-18 18v30c0 12 6 18 18 18h36c12 0 18-6 18-18v-30zM857.99999999 104c0-12-6-18-18-18h-36c-12 0-18 6-18 18v36c0 12 6 18 18 18h36c12 0 18-6 18-18v-36z m0 138c0-12-6-18-18-18h-36c-12 0-18 6-18 18v36c0 12 6 18 18 18h36c12 0 18-6 18-18v-36z m0 132c0-12-6-18-18-18h-36c-12 0-18 6-18 18v36c0 12 6 18 18 18h36c12 0 18-6 18-18v-36z m0 138c0-12-6-18-18-18h-36c-12 0-18 6-18 18v36c0 12 6 18 18 18h36c12 0 18-6 18-18v-36z m0 138c0-12-6-18-18-18h-36c-12 0-18 6-18 18v30c0 12 6 18 18 18h36c12 0 18-6 18-18v-30z m0 0"  horiz-adv-x="1024" />

    
    <glyph glyph-name="QZ" unicode="&#58884;" d="M512 896C228.8 896 0 667.2 0 384s228.8-512 512-512 512 228.8 512 512S795.2 896 512 896z m144-568s1.6-12.8 4.8-20.8c0-1.6-70.4-1.6-128 0-30.4 1.6-67.2 6.4-67.2 6.4L632 432s-59.2 9.6-121.6 12.8c-67.2 1.6-134.4-4.8-144-6.4-6.4-1.6 43.2-1.6 99.2-6.4 40-3.2 91.2-12.8 91.2-12.8l-166.4-121.6s33.6-6.4 152-3.2 156.8 11.2 156.8 11.2-8-4.8-16-6.4c-9.6-1.6-19.2-4.8-19.2-4.8 12.8-54.4 35.2-153.6 25.6-161.6C678.4 120 512 224 512 224s-168-100.8-177.6-92.8c-11.2 8 33.6 196.8 33.6 196.8s-150.4 124.8-144 139.2c6.4 16 198.4 28.8 198.4 28.8S496 675.2 512 675.2c17.6 0 88-179.2 88-179.2s193.6-12.8 198.4-28.8c6.4-14.4-142.4-139.2-142.4-139.2z"  horiz-adv-x="1024" />

    
    <glyph glyph-name="kandian_guankan" unicode="&#59338;" d="M507.114753 580.373651c-108.242357 0-195.916059-88.241219-195.916059-197.148235s87.673702-197.148235 195.916059-197.148235c108.145215 0 195.916059 88.338361 195.916058 197.148235 0 108.907017-87.678814 197.148235-195.916058 197.148235z m0-326.618794c-71.087891 0-128.71387 58.009437-128.71387 129.567702s57.625979 129.567702 128.71387 129.567701 128.71387-58.004324 128.713869-129.567701-57.625979-129.567702-128.713869-129.567702zM511.276544 894.553087c-282.372922 0-511.276544-228.903621-511.276544-511.276543s228.903621-511.276544 511.276544-511.276544 511.276544 228.903621 511.276543 511.276544-228.903621 511.276544-511.276543 511.276543zM503.607396 118.50176c-207.573164 0-366.805131 158.57242-417.227224 233.735185a60.325519 60.325519 0 0 0 1.421349 69.099025c53.172761 72.979614 218.095235 226.715358 415.810987 226.715357 195.440572 0 370.026173-149.947185 429.646131-224.158975a60.887924 60.887924 0 0 0 1.421349-74.406075c-56.77726-76.394941-225.963781-230.984517-431.072592-230.984517z"  horiz-adv-x="1024" />

    
    <glyph glyph-name="tubiaozhizuomoban" unicode="&#58926;" d="M511.4 127H175.3c-22 0-39.9 17.9-39.9 39.9V582.1c0 22 17.9 39.9 39.9 39.9h336.1v-495zM511.4 119H175.3c-26.4 0-47.9 21.5-47.9 47.9V582.1c0 26.4 21.5 47.9 47.9 47.9h336.1c4.4 0 8-3.6 8-8v-495c0-4.5-3.6-8-8-8zM175.3 614c-17.6 0-31.9-14.3-31.9-31.9v-415.2c0-17.6 14.3-31.9 31.9-31.9h328.1V614H175.3zM849.6 127H513.5V622h336.1c22 0 39.9-17.9 39.9-39.9v-415.2c0-22.1-17.9-39.9-39.9-39.9zM849.6 119H513.5c-4.4 0-8 3.6-8 8V622c0 4.4 3.6 8 8 8h336.1c26.4 0 47.9-21.5 47.9-47.9v-415.2c0-26.5-21.5-47.9-47.9-47.9z m-328.1 16h328.1c17.6 0 31.9 14.3 31.9 31.9V582.1c0 17.6-14.3 31.9-31.9 31.9H521.5v-479zM530.6 99.8l-20 20.4-20-20.4c-6.5-3.1-14 1.8-14 9.1v104h68v-104c0-7.4-7.5-12.2-14-9.1zM534.7 90.8c-2.6 0-5.1 0.6-7.6 1.7-0.9 0.4-1.6 1-2.3 1.6l-14.3 14.6-14.3-14.6c-0.7-0.7-1.4-1.2-2.3-1.6-5.5-2.6-11.9-2.2-17.1 1.1-5.2 3.3-8.3 9-8.3 15.2v104c0 4.4 3.6 8 8 8h68c4.4 0 8-3.6 8-8v-104c0-6.2-3.1-11.9-8.3-15.2-2.8-1.8-6.1-2.8-9.5-2.8z m-50.1 114v-96c0-1 0.6-1.5 0.9-1.7 0.3-0.2 0.5-0.3 0.8-0.3l18.5 18.9c1.5 1.5 3.6 2.4 5.7 2.4s4.2-0.9 5.7-2.4l18.5-18.9c0.3 0 0.6 0.1 0.8 0.3 0.3 0.2 0.9 0.7 0.9 1.7v96h-51.8zM812.5 171.7h-600c-11 0-20 9-20 20v25.4h640v-25.4c0-11.1-9-20-20-20zM812.5 163.7h-600c-15.4 0-28 12.6-28 28v25.4c0 4.4 3.6 8 8 8h640c4.4 0 8-3.6 8-8v-25.4c0-15.5-12.6-28-28-28z m-612 45.4v-17.4c0-6.6 5.4-12 12-12h600c6.6 0 12 5.4 12 12v17.4h-624zM512.4 187.4c-104.3 34.1-215.6 34.1-320 0V624c100 57.8 220 57.8 320 0v-436.6zM512.4 179.4c-0.8 0-1.7 0.1-2.5 0.4-103 33.7-212 33.7-315 0-2.4-0.8-5.1-0.4-7.2 1.1-2.1 1.5-3.3 3.9-3.3 6.5V624c0 2.8 1.5 5.5 4 6.9 50.3 29.1 107 44.5 164 44.5s113.7-15.4 164-44.5c2.5-1.4 4-4.1 4-6.9v-436.6c0-2.6-1.2-5-3.3-6.5-1.4-1-3-1.5-4.7-1.5z m-160 41.7c51.1 0 102.2-7.6 152-22.8V619.4c-95.5 53.5-208.5 53.5-304 0v-421.1c49.8 15.2 100.9 22.8 152 22.8zM832.5 186.1c-103.9 34-216.1 34-320 0V623.2c98.8 57.2 221.2 57.2 320 0v-437.1zM512.5 178.1c-1.7 0-3.3 0.5-4.7 1.5-2.1 1.5-3.3 3.9-3.3 6.5V623.2c0 2.9 1.5 5.5 4 6.9 101.1 58.6 226.8 58.6 328 0 2.5-1.4 4-4.1 4-7V186c0-2.5-1.2-4.9-3.2-6.4s-4.7-2-7.1-1.2c-0.1 0-0.1 0-0.2 0.1-101.6 33.2-213.4 33.2-315 0h-0.1c-0.8-0.2-1.6-0.4-2.4-0.4z m160 41.5c51.6 0 102.7-7.6 152-22.6V618.6c-94.2 52.7-209.8 52.7-304 0v-421.5a523.84 523.84 0 0 0 152 22.5zM551.1 544.6S608.3 557 665 557.2c53.9 0.2 119.4-12.6 119.4-12.6M551.1 536.6c-3.7 0-7 2.6-7.8 6.3-0.9 4.3 1.8 8.6 6.1 9.5 2.4 0.5 58.6 12.5 115.6 12.8 54.1 0.2 118.3-12.2 121-12.7 4.3-0.8 7.2-5.1 6.3-9.4-0.8-4.3-5-7.2-9.4-6.3-0.6 0.1-65.4 12.6-117.9 12.4-55.3-0.2-111.7-12.3-112.3-12.4-0.5-0.1-1-0.2-1.6-0.2zM551.1 463.2s57.2 12.4 113.9 12.6c53.9 0.2 119.4-12.6 119.4-12.6M551.1 455.2c-3.7 0-7 2.6-7.8 6.3-0.9 4.3 1.8 8.6 6.1 9.5 2.4 0.5 58.6 12.5 115.6 12.8 54.1 0.2 118.3-12.2 121-12.7 4.3-0.8 7.2-5.1 6.3-9.4-0.8-4.3-5-7.2-9.4-6.3-0.6 0.1-65.4 12.6-117.9 12.4-55.3-0.2-111.7-12.3-112.3-12.4-0.5-0.1-1-0.2-1.6-0.2zM551.1 381.9s57.2 12.4 113.9 12.6c53.9 0.2 119.4-12.6 119.4-12.6M551.1 373.9c-3.7 0-7 2.6-7.8 6.3-0.9 4.3 1.8 8.6 6.1 9.5 2.4 0.5 58.6 12.5 115.6 12.8 54.1 0.2 118.3-12.2 121-12.7 4.3-0.8 7.2-5.1 6.3-9.4-0.8-4.3-5-7.2-9.4-6.3-0.6 0.1-64.2 12.4-116.5 12.4H665c-55.3-0.2-111.7-12.3-112.3-12.4-0.5-0.2-1-0.2-1.6-0.2zM551.1 300.5s57.2 12.4 113.9 12.6c53.9 0.2 119.4-12.6 119.4-12.6M551.1 292.5c-3.7 0-7 2.6-7.8 6.3-0.9 4.3 1.8 8.6 6.1 9.5 2.4 0.5 58.6 12.5 115.6 12.8h1.5c53.8 0 116.8-12.2 119.5-12.7 4.3-0.8 7.2-5.1 6.3-9.4-0.8-4.3-5-7.2-9.4-6.3-0.6 0.1-64.2 12.5-116.5 12.5H665c-55.2-0.2-111.7-12.3-112.3-12.4-0.5-0.3-1-0.3-1.6-0.3zM466.5 544.6s-57.2 12.4-113.9 12.6c-53.9 0.2-119.4-12.6-119.4-12.6M233.1 536.6c-3.7 0-7.1 2.6-7.8 6.5-0.8 4.3 2 8.5 6.3 9.4 2.7 0.5 66.9 12.9 121 12.7 56.9-0.2 113.2-12.3 115.6-12.8 4.3-0.9 7.1-5.2 6.1-9.5-0.9-4.3-5.2-7.1-9.5-6.1-0.6 0.1-57.1 12.2-112.3 12.4-52.5 0.2-117.2-12.3-117.9-12.4-0.5-0.1-1-0.2-1.5-0.2zM466.5 463.2s-57.2 12.4-113.9 12.6c-53.9 0.2-119.4-12.6-119.4-12.6M233.1 455.2c-3.7 0-7.1 2.6-7.8 6.5-0.8 4.3 2 8.5 6.3 9.4 2.7 0.5 66.9 12.9 121 12.7 56.9-0.2 113.2-12.3 115.6-12.8 4.3-0.9 7.1-5.2 6.1-9.5-0.9-4.3-5.2-7.1-9.5-6.1-0.6 0.1-57.1 12.2-112.3 12.4-52.5 0.2-117.2-12.3-117.9-12.4-0.5-0.1-1-0.2-1.5-0.2zM466.5 381.9s-57.2 12.4-113.9 12.6c-53.9 0.2-119.4-12.6-119.4-12.6M466.5 373.9c-0.6 0-1.1 0.1-1.7 0.2-0.6 0.1-57.1 12.2-112.3 12.4-52.5 0.2-117.2-12.3-117.9-12.4-4.3-0.8-8.5 2-9.4 6.3-0.8 4.3 2 8.5 6.3 9.4 2.7 0.5 66.9 13 121 12.7 56.9-0.2 113.2-12.3 115.6-12.8 4.3-0.9 7.1-5.2 6.1-9.5-0.7-3.8-4-6.3-7.7-6.3zM466.5 300.5s-57.2 12.4-113.9 12.6c-53.9 0.2-119.4-12.6-119.4-12.6M466.5 292.5c-0.6 0-1.1 0.1-1.7 0.2-0.6 0.1-57.1 12.2-112.3 12.4-52.5 0.2-117.2-12.3-117.9-12.4-4.3-0.8-8.5 2-9.4 6.3-0.8 4.3 2 8.5 6.3 9.4 2.7 0.5 66.9 13 121 12.7 56.9-0.2 113.2-12.3 115.6-12.8 4.3-0.9 7.1-5.2 6.1-9.5-0.7-3.8-4-6.3-7.7-6.3z"  horiz-adv-x="1024" />

    
    <glyph glyph-name="fantuan" unicode="&#59437;" d="M797.445595-32.2816H206.167881c-72.769829 0-127.751314 21.162057-163.408457 62.8864C6.341595 73.230629 0.00011 126.3744 0.00011 158.222629c-0.0128 13.129143 1.064229 22.634057 1.5616 26.283885 7.036343 192.764343 108.533029 456.96 315.2 582.820572 134.908343 82.144914 235.196343 82.144914 370.102857 0 206.666971-125.8752 308.161829-390.058057 315.2128-582.820572 1.680457-12.536686 10.2016-93.723429-41.208686-153.903543-35.657143-41.722514-90.653257-62.884571-163.423086-62.884571M821.928338-56.753371H230.639653c-72.757029 0-127.751314 21.162057-163.408458 62.8864-36.405029 42.614857-42.772114 95.771429-42.772114 127.621485 0 13.127314 1.077029 22.632229 1.5616 26.282057 7.049143 192.777143 108.545829 456.96 315.2256 582.820572 134.893714 82.144914 235.194514 82.144914 370.101029 0 206.656-125.8752 308.150857-390.058057 315.1872-582.820572 1.693257-12.536686 10.2272-93.723429-41.195886-153.903542-35.657143-41.724343-90.638629-62.8864-163.410286-62.8864M70.001481 134.001371c0-24.641829 4.608-66.666057 32.032914-98.567314 26.624-30.996114 69.908114-46.710857 128.605258-46.710857h591.288685c58.698971 0 101.970286 15.714743 128.619886 46.710857 41.104457 47.813486 30.943086 118.405486 30.838857 119.114972l-0.263314 2.691657c-6.237257 181.066971-100.736 429.403429-293.447314 546.757485-120.661943 73.492114-202.112 73.492114-322.775772 0.0128C172.178395 586.656914 77.679653 338.307657 71.431424 157.238857l-0.248686-2.757486c-0.040229-0.208457-1.181257-8.177371-1.181257-20.48M331.019081 393.013029h390.5152v-427.026286H331.019081z"  horiz-adv-x="1028" />

    
    <glyph glyph-name="xiaoxi" unicode="&#58936;" d="M826.1 75.2c79.3 79.3 128.6 188.6 129.6 309.3C957.6 618.6 770.8 817.9 537 830.3 281.6 843.7 70.3 640.6 70.3 388.2c0-242.7 190.1-447.4 432.2-450.3 0.4 0 0.9-0.3 1.2-0.3l2.6 0.1c0.5 0 1-0.1 1.5-0.1 1.8 0 3.5 0.2 5.3 0.3l385-0.3c43.2 0 57.7 22.9 43.2 43.2-9.1 12.6-66.7 61.1-115.2 94.4zM278.4 315.4c-38 0-68.8 30.8-68.8 68.8s30.8 68.8 68.8 68.8 68.8-30.8 68.8-68.8-30.8-68.8-68.8-68.8z m236.9 0c-38 0-68.8 30.8-68.8 68.8s30.8 68.8 68.8 68.8 68.8-30.8 68.8-68.8c0.1-38-30.8-68.8-68.8-68.8z m232.3 0c-38 0-68.8 30.8-68.8 68.8s30.8 68.8 68.8 68.8 68.8-30.8 68.8-68.8-30.8-68.8-68.8-68.8z"  horiz-adv-x="1024" />

    
    <glyph glyph-name="gouwu-copy" unicode="&#58665;" d="M513.224386 657.458115l-0.122797 0c-61.96733 0-114.88761-60.600193-135.953392-145.867182l272.027533 0C628.166231 596.8579219999999 575.314513 657.458115 513.224386 657.458115zM513.284761 892.930081C232.88863 892.930081 5.660418 665.638425 5.660418 385.305739c0-280.331663 227.228211-507.624343 507.624343-507.624343 280.397155 0 507.624343 227.291656 507.624343 507.624343C1020.909104 665.638425 793.680892 892.930081 513.284761 892.930081zM196.01993 36.316370000000006l51.123354 475.274564 69.77004 0c26.894534 129.263016 104.601336 222.705198 196.311061 222.705198 91.829452 0 169.537278-93.442182 196.430788-222.705198l46.658669 0 74.236771-475.274564L196.01993 36.316370000000006z"  horiz-adv-x="1024" />

    


  </font>
</defs>
</svg>
